<?xml version="1.0" encoding="iso-8859-1"?>
<!-- Generator: Adobe Illustrator 19.0.0, SVG Export Plug-In . SVG Version: 6.00 Build 0)  -->
<svg version="1.1" id="Capa_1" xmlns="http://www.w3.org/2000/svg" xmlns:xlink="http://www.w3.org/1999/xlink" x="0px" y="0px"
	 viewBox="0 0 512 512" style="enable-background:new 0 0 512 512;" xml:space="preserve">
<path style="fill:#DBDBDB;" d="M264.674,95.458h-17.356V8.678c0-4.799,3.879-8.678,8.678-8.678h26.641v17.356h-17.963
	L264.674,95.458L264.674,95.458z"/>
<polygon style="fill:#C7463B;" points="257.732,0 299.387,0 299.387,43.39 247.319,43.39 247.319,0 "/>
<rect x="255.997" y="34.712" style="fill:#B9B9B9;" width="8.678" height="52.07"/>
<polygon style="fill:#DC4D41;" points="476.339,286.373 394.843,286.104 394.843,338.441 394.843,512 498.979,512 498.979,338.441 
	"/>
<rect x="394.846" y="338.44" style="fill:#D68F29;" width="104.14" height="173.56"/>
<polygon style="fill:#DC4D41;" points="35.655,286.373 13.014,338.441 13.014,512 117.15,512 117.15,338.441 117.15,286.104 "/>
<rect x="13.017" y="338.44" style="fill:#D68F29;" width="104.14" height="173.56"/>
<polygon style="fill:#EA9D2D;" points="394.843,199.593 256.214,69.424 117.15,200.079 117.15,199.593 117.15,512 394.843,512 "/>
<g>
	<rect x="169.217" y="277.69" style="fill:#8ACED8;" width="34.712" height="34.712"/>
	<rect x="238.637" y="277.69" style="fill:#8ACED8;" width="34.712" height="34.712"/>
	<rect x="308.066" y="277.69" style="fill:#8ACED8;" width="34.712" height="34.712"/>
	<rect x="169.217" y="208.27" style="fill:#8ACED8;" width="34.712" height="34.712"/>
	<rect x="238.637" y="208.27" style="fill:#8ACED8;" width="34.712" height="34.712"/>
	<rect x="308.066" y="208.27" style="fill:#8ACED8;" width="34.712" height="34.712"/>
</g>
<g>
	<rect x="47.726" y="373.15" style="fill:#6FBBC6;" width="34.712" height="34.712"/>
	<rect x="47.726" y="442.58" style="fill:#6FBBC6;" width="34.712" height="34.712"/>
	<rect x="429.556" y="373.15" style="fill:#6FBBC6;" width="34.712" height="34.712"/>
	<rect x="429.556" y="442.58" style="fill:#6FBBC6;" width="34.712" height="34.712"/>
</g>
<rect x="117.147" y="347.12" style="fill:#DC4D41;" width="277.69" height="34.712"/>
<rect x="151.857" y="381.83" style="fill:#D68F29;" width="34.712" height="130.17"/>
<rect x="117.147" y="381.83" style="fill:#EA9D2D;" width="34.712" height="130.17"/>
<rect x="325.417" y="381.83" style="fill:#D68F29;" width="34.712" height="130.17"/>
<rect x="360.137" y="381.83" style="fill:#EA9D2D;" width="34.712" height="130.17"/>
<circle style="fill:#B9B9B9;" cx="255.997" cy="147.53" r="26.03"/>
<ellipse style="fill:#DBDBDB;" cx="251.657" cy="147.53" rx="21.695" ry="25.6"/>
<rect x="186.577" y="381.83" style="fill:#EA9D2D;" width="138.85" height="130.17"/>
<rect x="221.286" y="416.54" style="fill:#B47923;" width="69.42" height="95.46"/>
<rect x="221.286" y="433.9" style="fill:#D68F29;" width="52.07" height="78.1"/>
<g>
	<rect x="91.117" y="338.44" style="fill:#B47923;" width="26.03" height="173.56"/>
	<rect x="394.846" y="338.44" style="fill:#B47923;" width="26.03" height="173.56"/>
</g>
<g>
	<polygon style="fill:#C7463B;" points="394.843,312.407 394.843,338.441 498.979,338.441 487.654,312.407 	"/>
	<polygon style="fill:#C7463B;" points="24.339,312.407 13.014,338.441 117.15,338.441 117.15,312.407 	"/>
</g>
<rect x="13.017" y="338.44" style="fill:#B47923;" width="104.14" height="17.356"/>
<polygon style="fill:#DC4D41;" points="255.997,0 290.708,0 290.708,43.39 247.319,43.39 247.319,0 "/>
<g>
</g>
<g>
</g>
<g>
</g>
<g>
</g>
<g>
</g>
<g>
</g>
<g>
</g>
<g>
</g>
<g>
</g>
<g>
</g>
<g>
</g>
<g>
</g>
<g>
</g>
<g>
</g>
<g>
</g>
</svg>
